<?xml version="1.0" encoding="utf-8"?>
<!-- Generator: Adobe Illustrator 15.1.0, SVG Export Plug-In . SVG Version: 6.00 Build 0)  -->
<!DOCTYPE svg PUBLIC "-//W3C//DTD SVG 1.1//EN" "http://www.w3.org/Graphics/SVG/1.1/DTD/svg11.dtd">
<svg version="1.1" id="Layer_1" xmlns="http://www.w3.org/2000/svg" xmlns:xlink="http://www.w3.org/1999/xlink" x="0px" y="0px"
	 width="1457.529px" height="992.13px" viewBox="0 0 1457.529 992.13" enable-background="new 0 0 1457.529 992.13"
	 xml:space="preserve">
<g>
	<g>
		<path fill="#378289" d="M139.262,870.093c0,4.834-0.258,8.178-0.771,10.029c-1.08,3.857-3.189,6.93-6.326,9.219
			c-3.138,2.288-6.815,3.434-11.032,3.434c-3.652,0-7.021-0.489-10.106-1.466l2.932-10.029c2.314,0.771,4.448,1.157,6.403,1.157
			c3.291,0,5.478-1.389,6.558-4.166c0.514-1.286,0.771-4.141,0.771-8.563V776.28h11.572V870.093z M128.268,751.091
			c1.362-1.361,3.098-2.044,5.208-2.044c2.108,0,3.844,0.683,5.208,2.044c1.362,1.364,2.044,3.1,2.044,5.208
			c0,2.109-0.682,3.846-2.044,5.208c-1.363,1.363-3.099,2.044-5.208,2.044c-2.109,0-3.845-0.681-5.208-2.044
			c-1.363-1.362-2.044-3.099-2.044-5.208C126.224,754.19,126.905,752.455,128.268,751.091z"/>
		<path fill="#378289" d="M184.178,776.28h11.572v48.218c0,6.943,0.386,11.599,1.157,13.964c1.285,3.961,3.522,6.982,6.712,9.064
			c3.188,2.084,6.866,3.125,11.032,3.125s7.843-1.041,11.032-3.125c3.188-2.082,5.426-5.104,6.712-9.064
			c0.771-2.365,1.157-7.021,1.157-13.964V776.28h11.572v48.989c0,2.727-0.026,4.821-0.077,6.288
			c-0.052,1.465-0.231,3.278-0.54,5.438s-0.798,4.115-1.466,5.863c-2.16,5.863-5.697,10.352-10.608,13.462
			c-4.912,3.113-10.839,4.668-17.783,4.668s-12.872-1.555-17.783-4.668c-4.912-3.11-8.448-7.599-10.608-13.462
			c-0.669-1.748-1.157-3.703-1.466-5.863s-0.489-3.974-0.54-5.438c-0.052-1.467-0.077-3.562-0.077-6.288V776.28z"/>
		<path fill="#378289" d="M347.516,859.755h-11.572v-49.144c0-3.188-0.026-5.517-0.077-6.981c-0.052-1.467-0.231-3.073-0.54-4.822
			c-0.309-1.748-0.771-3.266-1.389-4.552c-1.338-2.777-3.382-4.949-6.133-6.519c-2.752-1.568-5.825-2.354-9.219-2.354
			s-6.468,0.785-9.219,2.354c-2.752,1.569-4.796,3.741-6.133,6.519c-0.617,1.286-1.08,2.804-1.389,4.552
			c-0.309,1.749-0.489,3.355-0.54,4.822c-0.052,1.465-0.077,3.793-0.077,6.981v49.144h-11.572V776.28h11.572v8.563
			c5.657-6.531,12.215-9.798,19.673-9.798c5.092,0,9.566,1.171,13.424,3.51c3.857,2.342,6.84,5.568,8.949,9.683
			c2.726-4.114,6.146-7.341,10.261-9.683c4.114-2.339,8.666-3.51,13.655-3.51c5.605,0,10.608,1.492,15.005,4.475
			c4.397,2.983,7.573,7.098,9.528,12.344c0.668,1.749,1.157,3.717,1.466,5.902c0.309,2.187,0.488,4.024,0.54,5.516
			c0.051,1.492,0.077,3.678,0.077,6.558v49.915h-11.572v-49.144c0-3.188-0.026-5.517-0.077-6.981
			c-0.052-1.467-0.231-3.073-0.54-4.822c-0.309-1.748-0.771-3.266-1.389-4.552c-1.338-2.777-3.382-4.949-6.133-6.519
			c-2.752-1.568-5.825-2.354-9.219-2.354s-6.468,0.785-9.219,2.354c-2.752,1.569-4.796,3.741-6.133,6.519
			c-0.617,1.286-1.08,2.804-1.389,4.552c-0.309,1.749-0.489,3.355-0.54,4.822c-0.052,1.465-0.077,3.793-0.077,6.981V859.755z"/>
		<path fill="#378289" d="M471.895,775.046c5.246,0,10.003,1.132,14.272,3.395c4.269,2.264,7.611,5.246,10.029,8.949
			c2.571,3.909,4.243,8.152,5.015,12.729c0.771,4.578,1.157,10.544,1.157,17.898c0,7.355-0.386,13.321-1.157,17.898
			c-0.771,4.578-2.443,8.821-5.015,12.729c-2.418,3.703-5.761,6.687-10.029,8.949c-4.27,2.263-9.026,3.395-14.272,3.395
			c-8.538,0-15.867-3.368-21.987-10.106v40.812h-11.572V776.28h11.572v8.872C456.028,778.415,463.357,775.046,471.895,775.046z
			 M470.352,785.384c-6.893,0-12.164,2.521-15.815,7.561c-1.955,2.675-3.215,5.915-3.78,9.721
			c-0.566,3.807-0.849,8.924-0.849,15.353c0,6.43,0.282,11.547,0.849,15.353c0.565,3.807,1.825,7.047,3.78,9.721
			c3.651,5.041,8.923,7.561,15.815,7.561c6.892,0,12.163-2.52,15.815-7.561c1.954-2.674,3.214-5.914,3.78-9.721
			c0.565-3.806,0.849-8.923,0.849-15.353c0-6.429-0.283-11.546-0.849-15.353c-0.566-3.806-1.826-7.046-3.78-9.721
			C482.515,787.904,477.244,785.384,470.352,785.384z"/>
		<path fill="#378289" d="M545.934,751.091c1.362-1.361,3.098-2.044,5.208-2.044c2.108,0,3.844,0.683,5.208,2.044
			c1.362,1.364,2.044,3.1,2.044,5.208c0,2.109-0.682,3.846-2.044,5.208c-1.363,1.363-3.099,2.044-5.208,2.044
			c-2.109,0-3.845-0.681-5.208-2.044c-1.363-1.362-2.044-3.099-2.044-5.208C543.89,754.19,544.571,752.455,545.934,751.091z
			 M556.928,859.755h-11.572V776.28h11.572V859.755z"/>
		<path fill="#378289" d="M635.403,775.046c5.709,0,10.89,1.504,15.546,4.514c4.653,3.008,8.062,7.213,10.222,12.613
			c0.771,1.852,1.337,3.961,1.697,6.326c0.359,2.366,0.565,4.359,0.617,5.979c0.051,1.621,0.077,3.974,0.077,7.06v48.218H651.99
			v-47.446c0-4.886-0.104-8.421-0.309-10.608c-0.206-2.185-0.771-4.281-1.697-6.287c-1.44-3.188-3.665-5.657-6.673-7.406
			c-3.009-1.748-6.417-2.623-10.222-2.623c-3.807,0-7.213,0.875-10.222,2.623c-3.009,1.749-5.234,4.218-6.673,7.406
			c-0.926,2.006-1.492,4.103-1.697,6.287c-0.206,2.188-0.309,5.723-0.309,10.608v47.446h-11.572V776.28h11.572v8.795
			C620.256,778.39,627.328,775.046,635.403,775.046z"/>
		<path fill="#378289" d="M735.867,775.046c8.537,0,15.865,3.369,21.986,10.106v-8.872h11.572v74.911
			c0,9.052-0.412,15.172-1.234,18.361c-1.955,7.561-5.889,13.308-11.803,17.243c-5.916,3.934-12.756,5.901-20.521,5.901
			c-8.178,0-16.818-1.878-25.922-5.632l3.857-9.721c8.023,3.343,15.377,5.015,22.064,5.015c5.348,0,9.914-1.312,13.693-3.935
			c3.781-2.623,6.262-6.48,7.445-11.572c0.564-2.469,0.848-7.792,0.848-15.97c-6.121,6.738-13.449,10.106-21.986,10.106
			c-5.246,0-10.004-1.132-14.273-3.395s-7.611-5.246-10.029-8.949c-2.572-3.908-4.243-8.151-5.014-12.729
			c-0.771-4.577-1.157-10.543-1.157-17.898c0-7.354,0.386-13.32,1.157-17.898c0.771-4.577,2.442-8.82,5.014-12.729
			c2.418-3.703,5.76-6.686,10.029-8.949C725.863,776.178,730.621,775.046,735.867,775.046z M737.41,785.384
			c-6.893,0-12.164,2.521-15.816,7.561c-1.955,2.675-3.215,5.915-3.779,9.721c-0.566,3.807-0.85,8.924-0.85,15.353
			c0,6.43,0.283,11.547,0.85,15.353c0.564,3.807,1.824,7.047,3.779,9.721c3.652,5.041,8.924,7.561,15.816,7.561
			c6.891,0,12.162-2.52,15.814-7.561c1.955-2.674,3.215-5.914,3.781-9.721c0.564-3.806,0.848-8.923,0.848-15.353
			c0-6.429-0.283-11.546-0.848-15.353c-0.566-3.806-1.826-7.046-3.781-9.721C749.572,787.904,744.3,785.384,737.41,785.384z"/>
		<path fill="#378289" d="M892.431,785.075c2.777-3.343,5.734-5.85,8.871-7.521c3.137-1.671,6.738-2.508,10.801-2.508
			c2.109,0,4.475,0.283,7.098,0.849l-1.697,10.184c-2.932-0.463-5.246-0.694-6.943-0.694c-3.908,0-7.303,0.926-10.184,2.777
			s-4.963,4.347-6.248,7.483c-1.133,2.727-1.697,7.561-1.697,14.504v49.606h-11.572V776.28h11.572V785.075z"/>
		<path fill="#378289" d="M956.21,751.091c1.361-1.361,3.098-2.044,5.207-2.044c2.107,0,3.844,0.683,5.207,2.044
			c1.361,1.364,2.045,3.1,2.045,5.208c0,2.109-0.684,3.846-2.045,5.208c-1.363,1.363-3.1,2.044-5.207,2.044
			c-2.109,0-3.846-0.681-5.207-2.044c-1.365-1.362-2.045-3.099-2.045-5.208C954.166,754.19,954.845,752.455,956.21,751.091z
			 M967.203,859.755H955.63V776.28h11.572V859.755z"/>
		<path fill="#378289" d="M1033.181,859.755l-28.006-83.475h12.113l21.447,68.662l21.447-68.662h12.111l-28.004,83.475H1033.181z"/>
		<path fill="#378289" d="M1138.427,860.989c-5.967,0-11.238-1.119-15.816-3.355c-4.578-2.238-8.203-5.311-10.877-9.22
			c-1.904-2.726-3.332-5.966-4.281-9.721c-0.953-3.754-1.494-6.93-1.621-9.528c-0.129-2.596-0.193-6.312-0.193-11.147
			c0-3.96,0.039-6.955,0.117-8.987c0.076-2.031,0.332-4.5,0.771-7.406c0.436-2.905,1.092-5.542,1.967-7.908
			c2.16-5.657,5.771-10.184,10.84-13.578c5.064-3.395,10.916-5.092,17.551-5.092c6.531,0,12.355,1.711,17.475,5.131
			c5.115,3.421,8.781,7.959,10.992,13.616c1.285,3.24,2.07,6.469,2.354,9.683c0.281,3.215,0.424,8.036,0.424,14.465v2.546h-50.918
			c0,3.344,0.051,6.031,0.154,8.062c0.104,2.033,0.502,4.475,1.197,7.33c0.693,2.854,1.709,5.233,3.047,7.136
			c3.549,5.092,9.154,7.638,16.818,7.638c6.84,0,14.195-1.877,22.064-5.632l4.396,9.566
			C1155.785,858.855,1146.964,860.989,1138.427,860.989z M1156.556,810.92c-0.104-5.863-0.848-10.518-2.236-13.964
			c-1.389-3.549-3.641-6.365-6.75-8.447c-3.113-2.084-6.674-3.125-10.686-3.125c-4.166,0-7.768,1.041-10.801,3.125
			c-3.035,2.082-5.221,4.873-6.559,8.37c-1.389,3.601-2.135,8.281-2.236,14.041H1156.556z"/>
		<path fill="#378289" d="M1221.917,785.075c2.777-3.343,5.734-5.85,8.871-7.521c3.137-1.671,6.738-2.508,10.801-2.508
			c2.109,0,4.475,0.283,7.098,0.849l-1.697,10.184c-2.932-0.463-5.246-0.694-6.943-0.694c-3.908,0-7.303,0.926-10.184,2.777
			s-4.963,4.347-6.248,7.483c-1.133,2.727-1.697,7.561-1.697,14.504v49.606h-11.572V776.28h11.572V785.075z"/>
		<path fill="#378289" d="M1309.263,775.046c7.664,0,16.484,2.109,26.463,6.326l-3.936,9.798
			c-9.053-3.857-16.561-5.786-22.527-5.786c-2.982,0-5.605,0.438-7.869,1.312c-2.264,0.875-3.961,2.006-5.092,3.395
			s-1.967,2.777-2.508,4.166c-0.539,1.389-0.809,2.752-0.809,4.089c0,2.572,0.705,4.822,2.121,6.75
			c1.414,1.93,3.201,3.383,5.361,4.359c2.057,0.926,5.504,1.749,10.338,2.469c4.834,0.721,8.873,1.672,12.113,2.854
			c4.525,1.646,8.332,4.386,11.418,8.216c3.086,3.833,4.629,8.346,4.629,13.54c0,6.532-2.65,12.241-7.947,17.127
			c-5.297,4.887-12.549,7.329-21.756,7.329c-8.641,0-18.361-2.392-29.162-7.175l4.166-9.644c9.566,4.32,17.898,6.48,24.996,6.48
			c3.189,0,6.004-0.437,8.447-1.312c2.443-0.874,4.334-2.031,5.672-3.472c1.336-1.439,2.34-2.943,3.008-4.514
			c0.668-1.567,1.004-3.175,1.004-4.821c0-2.932-0.863-5.478-2.586-7.638s-3.895-3.729-6.518-4.706
			c-1.75-0.668-5.273-1.414-10.57-2.237c-5.297-0.822-9.516-1.954-12.652-3.395c-3.961-1.8-7.227-4.461-9.797-7.984
			c-2.572-3.522-3.857-7.6-3.857-12.229c0-6.326,2.531-11.79,7.598-16.395C1294.078,777.349,1300.828,775.046,1309.263,775.046z"/>
	</g>
	<path fill="#A7A9AC" d="M260.849,549.598c-34.02,0-54.088-34.108-54.937-35.58c-0.674-1.168-0.201-2.619,1.054-3.247
		c1.258-0.624,2.817-0.186,3.494,0.979c0.195,0.337,19.486,33.053,50.433,33.053c0.435,0,0.87-0.007,1.308-0.021
		c31.846-0.944,66.031-36.67,98.856-103.314c21.42-43.484,38.703-82.153,53.955-116.271c33.733-75.471,52.33-117.075,73.272-117.075
		c0.018,0,0.035,0,0.053,0c11.082,0.037,21.106,11.652,32.496,37.659c46.432,106.038,86.617,160.611,119.439,162.201
		c14.465,0.699,27.829-9.48,39.776-30.258c17.932-31.187,31.759-45.665,44.835-46.941c12.249-1.232,21.57,9.014,32.302,20.846
		c8.147,8.979,17.38,19.159,29.076,25.125c1.692,0.867,3.342,0.925,5.176,0.2c19.602-7.778,43.047-89.395,63.732-161.404
		c22.649-78.824,37.398-127.137,51.28-133.354c2.072-0.932,4.22-1.001,6.199-0.202c14.581,5.905,27.645,59.792,47.768,147.226
		c21.064,91.551,44.94,195.318,74.46,225.732c15.107,15.563,27.328,22.092,38.508,20.532
		c28.475-3.964,57.259-61.372,109.513-165.586l11.028-21.972c25.049-49.846,47.062-73.29,67.24-71.731
		c30.66,2.394,48.104,61.161,63.494,113.01c4.578,15.426,8.903,29.994,13.139,41.313c0.469,1.25-0.245,2.616-1.592,3.05
		c-1.351,0.43-2.82-0.224-3.284-1.477c-4.29-11.468-8.638-26.111-13.238-41.613c-14.201-47.848-31.878-107.393-58.952-109.508
		c-17.521-1.367-38.438,21.837-62.133,68.982l-11.02,21.968c-54.737,109.163-82.213,163.956-113.429,168.306
		c-13.034,1.819-26.738-5.196-43.11-22.065c-30.441-31.368-54.473-135.801-75.673-227.941
		c-15.68-68.145-31.895-138.614-44.781-143.833c-0.421-0.168-0.972-0.286-1.895,0.125c-12.751,5.71-30.94,69.034-48.532,130.273
		c-22.02,76.634-44.784,155.878-66.695,164.575c-3.269,1.3-6.621,1.16-9.689-0.406c-12.535-6.396-22.098-16.937-30.532-26.234
		c-9.791-10.788-18.232-20.081-27.821-19.171c-10.891,1.065-24.243,15.6-40.82,44.435c-12.972,22.561-27.997,33.631-44.597,32.787
		c-35.49-1.719-76.036-55.75-123.954-165.181c-10.206-23.302-19.276-34.644-27.732-34.672c-0.01,0-0.023,0-0.033,0
		c-17.499,0-37.793,45.407-68.507,114.119c-15.267,34.153-32.57,72.867-54.028,116.428
		c-34.188,69.406-68.98,105.108-103.412,106.111C261.839,549.589,261.341,549.598,260.849,549.598z"/>
	<path fill="#00A79D" d="M184.439,630.428c-35.312,0-55.959-35.311-56.835-36.836c-1.335-2.334-0.398-5.232,2.095-6.482
		c2.499-1.25,5.603-0.379,6.943,1.947c0.189,0.328,19.296,32.673,49.083,31.763c30.595-0.934,63.771-36.177,95.942-101.911
		c21.266-43.458,38.431-82.109,53.576-116.214c33.931-76.406,52.635-118.528,75.151-118.528c0.019,0,0.041,0,0.059,0
		c12.2,0.041,22.886,12.117,34.652,39.16c65.951,151.574,102.481,181.83,121.695,180.557c12.527-0.846,23.383-17.357,31.394-47.74
		c28.667-108.709,42.036-117.924,52.316-118.03c0.041,0,0.085,0,0.128,0c13.526,0,19.891,22.067,28.691,52.576
		c7.218,25.023,16.202,56.164,28.338,62.4c1.691,0.867,3.273,0.962,5.133,0.301c17.715-6.298,40.208-65.444,58.276-112.968
		c21.345-56.128,35.175-90.833,49.858-96.784c3.113-1.261,6.312-1.292,9.254-0.095c15.773,6.438,29.122,46.285,51.356,116.161
		c21.27,66.849,45.38,142.617,73.785,172.076c14.383,14.912,25.805,21.191,35.979,19.774c26.91-3.774,55.288-60.722,106.801-164.105
		l11.014-22.089c25.749-51.576,47.755-74.805,69.33-73.114c32.234,2.531,49.816,62.138,65.329,114.725
		c4.542,15.398,8.833,29.94,13.018,41.192c0.931,2.501-0.485,5.233-3.16,6.102c-2.67,0.865-5.598-0.454-6.526-2.953
		c-4.294-11.551-8.629-26.241-13.216-41.792c-13.165-44.63-31.195-105.75-56.305-107.72c-11.065-0.837-30.486,10.146-59.176,67.615
		l-11.01,22.082c-56.451,113.292-82.216,165-114.578,169.539c-14.078,1.973-27.985-5.07-45.117-22.835
		c-29.958-31.07-54.418-107.939-76.001-175.763c-15.682-49.282-33.456-105.142-45.624-110.106c-0.169-0.067-0.404-0.166-1.073,0.104
		c-11.341,4.596-28.835,50.604-44.274,91.198c-25.46,66.956-43.69,111.392-64.293,118.717c-4.657,1.656-9.402,1.355-13.718-0.859
		c-15.964-8.201-24.779-38.756-33.302-68.306c-4.587-15.901-13.121-45.485-18.79-45.485c-0.004,0-0.01,0-0.017,0
		c-3.121,0.031-15.407,8.11-42.469,110.735c-9.441,35.803-22.727,53.8-40.613,55.01c-0.586,0.038-1.184,0.06-1.777,0.06
		c-32.953,0.01-75.556-61.081-130.158-186.567c-11.92-27.399-20.275-33.168-25.188-33.185c-0.007,0-0.016,0-0.025,0
		c-15.668,0-37.737,49.699-65.676,112.617c-15.178,34.179-32.38,72.918-53.721,116.524
		c-34.406,70.303-69.731,106.475-104.994,107.509C185.479,630.418,184.957,630.428,184.439,630.428z"/>
	<path fill="#39B54A" d="M229.648,626.83c-33.293,0-53.635-34.582-53.84-34.935c-0.336-0.587-0.1-1.312,0.529-1.623
		c0.627-0.317,1.412-0.095,1.748,0.489c0.2,0.346,20.444,34.673,52.902,33.652c32.837-0.969,66.485-35.964,100.009-104.012
		c21.427-43.498,38.712-82.175,53.964-116.299c32.422-72.534,52-116.341,72.084-116.341c0.016,0,0.03,0,0.046,0
		c10.343,0.035,20.291,11.766,31.305,36.917c46.64,106.498,87.205,161.316,120.57,162.932c14.879,0.659,28.777-9.662,40.984-30.886
		c17.707-30.799,31.224-45.085,43.828-46.317c11.611-1.125,20.684,8.856,31.186,20.431c8.219,9.06,17.533,19.323,29.437,25.401
		c21.633,11.043,50.068-33.078,75.147-72.007c22.962-35.63,42.79-66.402,58.101-60.2c15.341,6.213,29.812,41.708,46.565,82.807
		c18.723,45.92,39.942,97.968,68.466,127.349c15.427,15.894,28.025,22.543,39.662,20.92c29.149-4.059,56.324-58.246,110.46-166.197
		l11.057-22.03c24.796-49.336,46.383-72.596,65.96-71.053c29.759,2.323,47.075,60.652,62.354,112.116
		c4.583,15.449,8.914,30.04,13.167,41.4c0.231,0.624-0.125,1.307-0.797,1.525c-0.664,0.22-1.408-0.114-1.641-0.738
		c-4.278-11.434-8.622-26.062-13.219-41.55c-14.308-48.197-32.115-108.183-60.08-110.364c-18.187-1.404-39.46,22.03-63.405,69.679
		l-11.056,22.028c-54.527,108.729-81.896,163.303-112.42,167.553c-12.558,1.744-25.901-5.137-41.96-21.685
		c-28.85-29.713-50.159-81.986-68.96-128.105c-16.551-40.59-30.843-75.648-45.187-81.458c-13.232-5.356-34.391,27.479-54.85,59.233
		c-23.792,36.922-48.304,74.956-70.112,74.959c-2.883,0-5.713-0.665-8.496-2.083c-12.326-6.29-21.804-16.74-30.17-25.959
		c-10.024-11.05-18.699-20.602-28.941-19.588c-11.503,1.125-24.792,15.442-41.821,45.062
		c-12.716,22.113-27.233,32.976-43.395,32.153c-34.452-1.671-75.777-56.991-122.823-164.424
		c-10.571-24.138-19.762-35.394-28.926-35.424c-0.01,0-0.025,0-0.036,0c-18.362,0-38.788,45.7-69.701,114.864
		c-15.259,34.141-32.557,72.84-54.001,116.375c-33.97,68.958-68.383,104.423-102.287,105.41
		C230.583,626.825,230.114,626.83,229.648,626.83z"/>
	<path fill="#86AAB0" d="M251.779,725.256c-38.596,0.001-60.814-37.735-61.753-39.361c-2.694-4.669-0.803-10.478,4.223-12.979
		c5.03-2.504,11.281-0.742,13.974,3.925c0.163,0.274,17.817,30.083,44.731,29.223c20.008-0.629,52.212-18.336,92.004-99.118
		c21.362-43.367,38.619-81.973,53.841-116.033c36.146-80.871,54.311-121.509,80.417-121.509c0.028,0,0.054,0,0.083,0
		c18.695,0.063,30.531,21.342,39.642,42.147c59.265,135.347,96.027,156.911,112.667,157.718
		c11.216,0.529,22.137-8.365,32.549-26.466c19.529-33.964,34.734-49.125,50.849-50.7c16.372-1.572,27.897,11.091,39.035,23.359
		c8.087,8.913,16.452,18.129,26.886,23.452c14.01,7.152,44.71-40.49,63.05-68.959c27.206-42.225,46.871-72.727,69.45-63.58
		c17.959,7.272,30.606,36.503,51.419,87.541c18.439,45.228,39.336,96.489,66.72,124.695c13.029,13.424,23.381,19.39,31.612,18.239
		c24.351-3.39,54.186-62.886,103.61-161.448l11.056-22.031c26.962-53.642,50.671-77.749,74.908-75.865
		c36.037,2.812,53.458,61.5,70.307,118.254c4.547,15.314,8.841,29.771,12.99,40.873c1.872,5.002-0.976,10.463-6.363,12.203
		c-5.387,1.73-11.269-0.908-13.137-5.91c-4.373-11.691-8.755-26.448-13.393-42.066c-11.385-38.356-30.443-102.554-52.135-104.246
		c-6.364-0.505-24.307,4.851-54.466,64.865l-11.049,22.021c-57.641,114.937-83.945,167.393-119.266,172.313
		c-20.82,2.909-38.514-12.517-50.012-24.364c-29.979-30.882-51.609-83.934-70.694-130.738
		c-13.005-31.904-29.159-71.521-40.017-76.609c-8.995,1.642-30.764,35.427-43.829,55.698
		c-29.129,45.219-59.258,91.976-90.706,75.917c-13.798-7.036-23.858-18.122-32.729-27.898c-7.669-8.45-15.66-17.232-21.089-16.649
		c-4.519,0.443-15.046,6.311-34.798,40.662c-14.51,25.239-31.934,37.57-51.833,36.582c-39.339-1.904-80.877-55.809-130.717-169.64
		c-13.065-29.828-20.289-30.196-20.592-30.198c0,0-0.001,0-0.003,0c-0.715,0-7.269,0.744-21.549,25.911
		c-11.124,19.601-23.78,47.921-39.805,83.775c-15.291,34.213-32.621,72.984-54.134,116.663
		c-35.519,72.099-72.602,109.207-110.22,110.307C252.932,725.25,252.352,725.256,251.779,725.256z"/>
</g>
</svg>
